# xmcd
#
# Track frame offsets: 
#        180
#        25020
#        39700
#        61210
#        78050
#        96945
#        120535
#        137800
#        163315
#        185030
#        204915
#
# Disc length: 2980 seconds
#
# Revision: 0
# Processed by: cddbd v1.5.2PL0 Copyright (c) Steve Scherf et al.
# Submitted via: ExactAudioCopy v1.3
#
DISCID=900ba20b
DTITLE=Elliott Murphy - Selling the Gold
DYEAR=1996
DGENRE=Blues
TTITLE0=Love to America
TTITLE1=Take your love away
TTITLE2=Everything I do (leads me back to you)
TTITLE3=Taste the good life
TTITLE4=Selling the gold
TTITLE5=A whole new world
TTITLE6=Buddy and Peggy Sue
TTITLE7=Real time
TTITLE8=Is Fellini really dead
TTITLE9=Then I'm gonna make love to you
TTITLE10=King of the serpentine
EXTD=
EXTT0=
EXTT1=
EXTT2=
EXTT3=
EXTT4=
EXTT5=
EXTT6=
EXTT7=
EXTT8=
EXTT9=
EXTT10=
PLAYORDER=
